<svg width="352" height="118" viewBox="0 0 352 118" fill="none" xmlns="http://www.w3.org/2000/svg">
<path d="M41.808 20.9673C35.7865 17.1351 31.5168 16.1521 28.3704 17.876C27.7099 18.2393 27.1057 18.6968 26.5765 19.2343C25.8738 19.9414 25.4336 20.7287 24.9684 21.562C24.408 22.5663 23.7713 23.7072 22.4792 25.0074C21.187 26.3075 20.0512 26.9511 19.0498 27.5183C18.2192 27.9878 17.4358 28.4315 16.7351 29.1365C16.1834 29.6877 15.7109 30.3132 15.3311 30.9949C13.6331 34.1391 14.6307 38.4126 18.4635 44.4501C22.5889 50.9462 26.5263 53.7067 29.5438 52.2302C29.9594 52.0298 30.3384 51.7607 30.6649 51.4343C32.199 49.8906 32.1463 47.3721 31.9367 45.4778C31.6978 43.3354 32.2065 41.6147 35.6468 38.1531C38.7197 35.0612 40.4098 34.1993 42.8816 34.4652C44.4355 34.6325 45.6922 34.5791 46.7234 34.3037C48.0944 33.9371 49.0718 33.1785 49.6222 32.044C50.4924 30.2598 50.0525 28.3 48.3146 26.2177C46.9808 24.6221 44.8527 22.9045 41.808 20.9673ZM27.4288 34.8805L25.7886 36.5309L27.4353 38.1748C27.6536 38.3928 27.7766 38.6888 27.7772 38.9977C27.7778 39.3066 27.656 39.6031 27.4385 39.822C27.221 40.0408 26.9256 40.1641 26.6174 40.1647C26.3092 40.1653 26.0134 40.0432 25.795 39.8252L24.1484 38.1813L22.5081 39.8317C22.2906 40.0505 21.9953 40.1738 21.6871 40.1744C21.3789 40.175 21.0831 40.0529 20.8647 39.8349C20.6463 39.6169 20.5233 39.3209 20.5227 39.012C20.5221 38.7031 20.644 38.4066 20.8615 38.1877L22.5017 36.5374L20.855 34.8935C20.6367 34.6755 20.5137 34.3795 20.5131 34.0706C20.5124 33.7617 20.6343 33.4652 20.8518 33.2463C21.0693 33.0275 21.3647 32.9042 21.6729 32.9036C21.9811 32.903 22.2769 33.0251 22.4953 33.2431L24.1419 34.887L25.7822 33.2366C25.9997 33.0178 26.295 32.8945 26.6032 32.8939C26.9114 32.8933 27.2072 33.0154 27.4256 33.2334C27.644 33.4514 27.767 33.7474 27.7676 34.0563C27.7682 34.3652 27.6463 34.6617 27.4288 34.8805ZM31.9403 30.7538C31.7375 30.9578 31.4789 31.097 31.1973 31.1537C30.9156 31.2104 30.6235 31.1822 30.3578 31.0725C30.0922 30.9628 29.8649 30.7767 29.7049 30.5376C29.5448 30.2985 29.459 30.0172 29.4585 29.7292C29.4579 29.4413 29.5426 29.1596 29.7017 28.9199C29.8608 28.6801 30.0874 28.4931 30.3526 28.3824C30.6178 28.2717 30.9098 28.2423 31.1917 28.2979C31.4736 28.3535 31.7327 28.4917 31.9362 28.6949C32.2092 28.9674 32.363 29.3374 32.3637 29.7235C32.3645 30.1096 32.2121 30.4802 31.9403 30.7538ZM36.4597 30.7449C36.2569 30.949 35.9981 31.0882 35.7163 31.1449C35.4345 31.2016 35.1422 31.1732 34.8765 31.0633C34.6108 30.9534 34.3835 30.7669 34.2236 30.5276C34.0636 30.2882 33.9782 30.0066 33.978 29.7185C33.9778 29.4304 34.0628 29.1487 34.2224 28.9091C34.3821 28.6695 34.609 28.4827 34.8746 28.3725C35.1401 28.2622 35.4324 28.2334 35.7143 28.2896C35.9962 28.3459 36.2551 28.4847 36.4583 28.6886C36.7301 28.9613 36.8829 29.3309 36.8832 29.7164C36.8835 30.1019 36.7312 30.4718 36.4597 30.7449ZM31.9314 26.2242C31.7286 26.4282 31.4701 26.5673 31.1884 26.6241C30.9067 26.6808 30.6146 26.6525 30.349 26.5429C30.0833 26.4332 29.8561 26.247 29.696 26.0079C29.5359 25.7688 29.4502 25.4875 29.4496 25.1996C29.4491 24.9116 29.5337 24.63 29.6928 24.3902C29.852 24.1505 30.0785 23.9634 30.3437 23.8527C30.6089 23.742 30.9009 23.7126 31.1828 23.7682C31.4647 23.8239 31.7238 23.962 31.9274 24.1652C32.2003 24.4377 32.3541 24.8077 32.3549 25.1938C32.3556 25.58 32.2033 25.9506 31.9314 26.2242ZM36.4509 26.2153C36.2481 26.4193 35.9896 26.5585 35.7079 26.6152C35.4262 26.6719 35.1341 26.6437 34.8685 26.534C34.6028 26.4243 34.3756 26.2381 34.2155 25.999C34.0554 25.7599 33.9697 25.4786 33.9691 25.1907C33.9685 24.9027 34.0532 24.6211 34.2123 24.3814C34.3715 24.1416 34.598 23.9546 34.8632 23.8439C35.1284 23.7331 35.4204 23.7037 35.7023 23.7594C35.9842 23.815 36.2433 23.9531 36.4469 24.1563C36.7198 24.4288 36.8736 24.7988 36.8743 25.185C36.8751 25.5711 36.7228 25.9417 36.4509 26.2153Z" stroke="white" stroke-opacity="0.05"/>
<path d="M139.633 71.9698C145.655 68.1375 149.925 67.1546 153.071 68.8784C153.731 69.2417 154.336 69.6993 154.865 70.2367C155.568 70.9438 156.008 71.7312 156.473 72.5644C157.033 73.5687 157.67 74.7096 158.962 76.0098C160.254 77.31 161.39 77.9536 162.392 78.5207C163.222 78.9902 164.006 79.4339 164.706 80.139C165.258 80.6902 165.731 81.3156 166.11 81.9973C167.808 85.1416 166.811 89.415 162.978 95.4525C158.852 101.949 154.915 104.709 151.898 103.233C151.482 103.032 151.103 102.763 150.777 102.437C149.242 100.893 149.295 98.3746 149.505 96.4803C149.744 94.3379 149.235 92.6172 145.795 89.1555C142.722 86.0636 141.032 85.2017 138.56 85.4676C137.006 85.6349 135.749 85.5815 134.718 85.3062C133.347 84.9396 132.37 84.181 131.819 83.0464C130.949 81.2622 131.389 79.3024 133.127 77.2202C134.461 75.6245 136.589 73.9069 139.633 71.9698ZM154.013 85.883L155.653 87.5334L154.006 89.1773C153.788 89.3953 153.665 89.6913 153.664 90.0002C153.664 90.3091 153.785 90.6056 154.003 90.8244C154.22 91.0433 154.516 91.1666 154.824 91.1672C155.132 91.1678 155.428 91.0457 155.646 90.8277L157.293 89.1837L158.933 90.8341C159.151 91.053 159.446 91.1763 159.754 91.1769C160.063 91.1775 160.358 91.0553 160.577 90.8373C160.795 90.6193 160.918 90.3233 160.919 90.0144C160.919 89.7055 160.797 89.409 160.58 89.1902L158.94 87.5398L160.586 85.8959C160.805 85.6779 160.928 85.3819 160.928 85.073C160.929 84.7641 160.807 84.4676 160.59 84.2488C160.372 84.0299 160.077 83.9066 159.769 83.906C159.46 83.9054 159.165 84.0275 158.946 84.2455L157.299 85.8894L155.659 84.2391C155.442 84.0202 155.146 83.8969 154.838 83.8963C154.53 83.8957 154.234 84.0178 154.016 84.2358C153.797 84.4538 153.674 84.7498 153.674 85.0587C153.673 85.3676 153.795 85.6641 154.013 85.883ZM149.501 81.7562C149.704 81.9603 149.962 82.0994 150.244 82.1562C150.526 82.2129 150.818 82.1846 151.084 82.075C151.349 81.9653 151.576 81.7791 151.737 81.54C151.897 81.3009 151.982 81.0196 151.983 80.7317C151.983 80.4437 151.899 80.1621 151.74 79.9223C151.581 79.6826 151.354 79.4955 151.089 79.3848C150.824 79.2741 150.532 79.2447 150.25 79.3003C149.968 79.356 149.709 79.4941 149.505 79.6973C149.232 79.9698 149.078 80.3398 149.078 80.7259C149.077 81.1121 149.229 81.4827 149.501 81.7562ZM144.982 81.7474C145.185 81.9515 145.443 82.0907 145.725 82.1474C146.007 82.204 146.299 82.1756 146.565 82.0657C146.831 81.9558 147.058 81.7694 147.218 81.53C147.378 81.2906 147.463 81.0091 147.463 80.7209C147.464 80.4328 147.379 80.1512 147.219 79.9115C147.059 79.6719 146.832 79.4852 146.567 79.3749C146.301 79.2646 146.009 79.2358 145.727 79.2921C145.445 79.3483 145.186 79.4872 144.983 79.691C144.711 79.9637 144.558 80.3334 144.558 80.7189C144.558 81.1044 144.71 81.4743 144.982 81.7474ZM149.51 77.2266C149.713 77.4306 149.971 77.5698 150.253 77.6265C150.535 77.6832 150.827 77.655 151.092 77.5453C151.358 77.4356 151.585 77.2495 151.745 77.0104C151.905 76.7713 151.991 76.4899 151.992 76.202C151.992 75.9141 151.908 75.6324 151.749 75.3927C151.589 75.1529 151.363 74.9659 151.098 74.8552C150.832 74.7445 150.54 74.7151 150.259 74.7707C149.977 74.8263 149.718 74.9644 149.514 75.1677C149.241 75.4402 149.087 75.8102 149.087 76.1963C149.086 76.5824 149.238 76.953 149.51 77.2266ZM144.991 77.2177C145.193 77.4217 145.452 77.5609 145.734 77.6176C146.015 77.6744 146.307 77.6461 146.573 77.5364C146.839 77.4268 147.066 77.2406 147.226 77.0015C147.386 76.7624 147.472 76.4811 147.472 76.1931C147.473 75.9052 147.388 75.6235 147.229 75.3838C147.07 75.1441 146.843 74.957 146.578 74.8463C146.313 74.7356 146.021 74.7062 145.739 74.7618C145.457 74.8174 145.198 74.9556 144.995 75.1588C144.722 75.4313 144.568 75.8013 144.567 76.1874C144.566 76.5735 144.719 76.9442 144.991 77.2177Z" fill="white" fill-opacity="0.05"/>
<path d="M110.1 31.3857C108.39 24.4508 105.98 20.7876 102.515 19.8586C101.787 19.6647 101.035 19.5778 100.281 19.6005C99.2851 19.6259 98.4235 19.891 97.5122 20.1718C96.414 20.5106 95.1665 20.8954 93.335 20.9421C91.5035 20.9888 90.2381 20.6689 89.1227 20.3866C88.1981 20.1518 87.3255 19.931 86.3324 19.9564C85.5531 19.9735 84.7798 20.099 84.0348 20.3294C80.6376 21.4291 78.4105 25.2091 77.0166 32.2253C75.5179 39.7754 76.4605 44.4942 79.6613 45.5129C80.1001 45.6553 80.5598 45.7228 81.0212 45.7125C83.1956 45.6571 84.8951 43.7994 86.0505 42.2846C87.3559 40.5702 88.911 39.6776 93.7872 39.5532C98.1425 39.442 99.9594 39.9874 101.563 41.8888C102.572 43.0843 103.517 43.9145 104.453 44.4285C105.697 45.1114 106.928 45.2387 108.108 44.7988C109.969 44.1102 111.003 42.3889 111.183 39.6814C111.319 37.6053 110.965 34.8918 110.1 31.3857ZM90.1023 31.5043L87.7775 31.5636L87.834 33.891C87.8415 34.1996 87.7263 34.4987 87.5136 34.7225C87.3009 34.9463 87.0082 35.0765 86.6999 35.0843C86.3916 35.0922 86.093 34.9771 85.8697 34.7645C85.6464 34.5518 85.5168 34.2589 85.5093 33.9503L85.4527 31.6229L83.1279 31.6822C82.8196 31.6901 82.521 31.575 82.2977 31.3623C82.0744 31.1497 81.9447 30.8568 81.9372 30.5482C81.9297 30.2395 82.045 29.9404 82.2577 29.7166C82.4704 29.4928 82.7631 29.3627 83.0714 29.3548L85.3962 29.2955L85.3396 26.9681C85.3321 26.6595 85.4474 26.3604 85.6601 26.1366C85.8728 25.9128 86.1654 25.7827 86.4737 25.7748C86.782 25.7669 87.0807 25.882 87.3039 26.0947C87.5272 26.3073 87.6569 26.6002 87.6644 26.9088L87.7209 29.2362L90.0457 29.1769C90.354 29.169 90.6527 29.2841 90.876 29.4968C91.0992 29.7094 91.2289 30.0023 91.2364 30.3109C91.2439 30.6196 91.1286 30.9187 90.9159 31.1425C90.7033 31.3663 90.4106 31.4964 90.1023 31.5043ZM96.2119 31.6395C95.9246 31.6469 95.6416 31.5687 95.3987 31.415C95.1559 31.2612 94.9642 31.0388 94.8477 30.7758C94.7313 30.5128 94.6954 30.2211 94.7446 29.9375C94.7938 29.6539 94.9259 29.3912 95.1242 29.1826C95.3224 28.9739 95.578 28.8288 95.8585 28.7655C96.1389 28.7022 96.4318 28.7235 96.7 28.8268C96.9681 28.9302 97.1996 29.1108 97.3651 29.346C97.5305 29.5811 97.6226 29.8602 97.6296 30.1478C97.639 30.5336 97.4949 30.9075 97.229 31.1873C96.9631 31.467 96.5973 31.6297 96.2119 31.6395ZM99.4863 34.7581C99.1987 34.7655 98.9156 34.6872 98.6727 34.5333C98.4298 34.3794 98.238 34.1568 98.1217 33.8936C98.0054 33.6304 97.9697 33.3384 98.0192 33.0547C98.0687 32.771 98.2011 32.5083 98.3998 32.2998C98.5984 32.0914 98.8543 31.9465 99.135 31.8836C99.4158 31.8207 99.7087 31.8425 99.9769 31.9464C100.245 32.0503 100.476 32.2315 100.641 32.4672C100.806 32.7028 100.898 32.9822 100.904 33.2701C100.912 33.6553 100.768 34.0282 100.502 34.3072C100.236 34.5861 99.871 34.7483 99.4863 34.7581ZM99.3308 28.3578C99.0434 28.3652 98.7604 28.287 98.5176 28.1333C98.2747 27.9795 98.083 27.7571 97.9665 27.4941C97.8501 27.2311 97.8142 26.9394 97.8634 26.6558C97.9127 26.3722 98.0447 26.1095 98.243 25.9009C98.4413 25.6922 98.6968 25.5471 98.9773 25.4838C99.2578 25.4205 99.5506 25.4418 99.8188 25.5451C100.087 25.6485 100.318 25.8291 100.484 26.0643C100.649 26.2994 100.741 26.5785 100.748 26.8662C100.758 27.2519 100.614 27.6258 100.348 27.9056C100.082 28.1853 99.7161 28.348 99.3308 28.3578ZM102.605 31.4764C102.318 31.4838 102.035 31.4056 101.792 31.2519C101.549 31.0981 101.357 30.8757 101.241 30.6127C101.124 30.3497 101.089 30.058 101.138 29.7744C101.187 29.4908 101.319 29.2281 101.517 29.0195C101.716 28.8108 101.971 28.6657 102.252 28.6024C102.532 28.5391 102.825 28.5604 103.093 28.6637C103.361 28.7671 103.593 28.9477 103.758 29.1829C103.924 29.418 104.016 29.6971 104.023 29.9848C104.032 30.3705 103.888 30.7444 103.622 31.0242C103.356 31.3039 102.99 31.4666 102.605 31.4764Z" fill="white" fill-opacity="0.05"/>
<path d="M71.3415 82.3881C73.0519 75.4533 75.4613 71.7901 78.9259 70.8611C79.6542 70.6671 80.4068 70.5802 81.1603 70.6029C82.1563 70.6284 83.0179 70.8934 83.9292 71.1743C85.0274 71.513 86.2749 71.8978 88.1064 71.9446C89.9379 71.9913 91.2033 71.6713 92.3188 71.389C93.2433 71.1543 94.1159 70.9335 95.1091 70.9588C95.8883 70.9759 96.6616 71.1015 97.4066 71.3318C100.804 72.4315 103.031 76.2115 104.425 83.2277C105.924 90.7779 104.981 95.4966 101.78 96.5153C101.341 96.6578 100.882 96.7253 100.42 96.715C98.2458 96.6595 96.5463 94.8018 95.3909 93.287C94.0855 91.5726 92.5305 90.68 87.6542 90.5556C83.2989 90.4445 81.4821 90.9898 79.878 92.8913C78.8698 94.0867 77.9242 94.917 76.9885 95.4309C75.7441 96.1138 74.5139 96.2411 73.3331 95.8013C71.4729 95.1126 70.4388 93.3913 70.2589 90.6838C70.1225 88.6077 70.4763 85.8942 71.3415 82.3881ZM91.3391 82.5067L93.6639 82.566L93.6074 84.8934C93.5999 85.202 93.7151 85.5012 93.9278 85.725C94.1405 85.9488 94.4332 86.0789 94.7415 86.0868C95.0498 86.0946 95.3484 85.9796 95.5717 85.7669C95.795 85.5542 95.9247 85.2614 95.9321 84.9527L95.9887 82.6253L98.3135 82.6847C98.6218 82.6925 98.9204 82.5775 99.1437 82.3648C99.367 82.1521 99.4967 81.8592 99.5042 81.5506C99.5117 81.242 99.3964 80.9429 99.1837 80.7191C98.971 80.4953 98.6783 80.3651 98.37 80.3573L96.0452 80.298L96.1018 77.9706C96.1093 77.662 95.994 77.3628 95.7813 77.139C95.5686 76.9153 95.276 76.7851 94.9677 76.7772C94.6594 76.7694 94.3608 76.8844 94.1375 77.0971C93.9142 77.3098 93.7845 77.6026 93.777 77.9113L93.7205 80.2387L91.3957 80.1793C91.0874 80.1715 90.7887 80.2865 90.5655 80.4992C90.3422 80.7119 90.2125 81.0048 90.205 81.3134C90.1975 81.622 90.3128 81.9211 90.5255 82.1449C90.7382 82.3687 91.0308 82.4989 91.3391 82.5067ZM85.2295 82.642C85.5169 82.6493 85.7998 82.5712 86.0427 82.4174C86.2855 82.2637 86.4773 82.0412 86.5937 81.7783C86.7101 81.5153 86.746 81.2235 86.6968 80.9399C86.6476 80.6563 86.5155 80.3936 86.3172 80.185C86.119 79.9764 85.8634 79.8312 85.5829 79.7679C85.3025 79.7046 85.0096 79.726 84.7414 79.8293C84.4733 79.9326 84.2418 80.1133 84.0763 80.3484C83.9109 80.5835 83.8188 80.8626 83.8118 81.1503C83.8025 81.5361 83.9465 81.91 84.2124 82.1897C84.4783 82.4695 84.8441 82.6321 85.2295 82.642ZM81.9551 85.7606C82.2427 85.7679 82.5258 85.6897 82.7687 85.5358C83.0116 85.3819 83.2034 85.1592 83.3197 84.896C83.436 84.6328 83.4717 84.3409 83.4222 84.0572C83.3727 83.7735 83.2403 83.5108 83.0416 83.3023C82.843 83.0938 82.5871 82.9489 82.3064 82.886C82.0256 82.8231 81.7327 82.845 81.4645 82.9489C81.1964 83.0527 80.9652 83.234 80.8002 83.4696C80.6351 83.7052 80.5437 83.9847 80.5374 84.2725C80.529 84.6577 80.6735 85.0307 80.9393 85.3096C81.2051 85.5886 81.5704 85.7508 81.9551 85.7606ZM82.1106 79.3603C82.398 79.3676 82.681 79.2895 82.9238 79.1357C83.1667 78.982 83.3584 78.7596 83.4749 78.4966C83.5913 78.2336 83.6272 77.9418 83.578 77.6582C83.5288 77.3746 83.3967 77.1119 83.1984 76.9033C83.0001 76.6947 82.7446 76.5495 82.4641 76.4862C82.1836 76.4229 81.8908 76.4443 81.6226 76.5476C81.3544 76.6509 81.123 76.8316 80.9575 77.0667C80.792 77.3018 80.7 77.5809 80.693 77.8686C80.6836 78.2544 80.8277 78.6283 81.0936 78.908C81.3594 79.1878 81.7253 79.3504 82.1106 79.3603ZM78.8363 82.4789C79.1237 82.4862 79.4067 82.4081 79.6495 82.2543C79.8923 82.1006 80.0841 81.8782 80.2005 81.6152C80.3169 81.3522 80.3528 81.0604 80.3036 80.7768C80.2544 80.4932 80.1223 80.2305 79.9241 80.0219C79.7258 79.8133 79.4703 79.6681 79.1898 79.6048C78.9093 79.5415 78.6164 79.5629 78.3483 79.6662C78.0801 79.7695 77.8486 79.9502 77.6832 80.1853C77.5177 80.4204 77.4256 80.6995 77.4187 80.9872C77.4093 81.373 77.5534 81.7469 77.8192 82.0266C78.0851 82.3064 78.4509 82.469 78.8363 82.4789Z" stroke="white" stroke-opacity="0.05"/>
<path d="M160.612 26.2466C156.765 24.1275 154.104 23.6902 152.238 24.8717C151.847 25.1206 151.493 25.4252 151.189 25.776C150.785 26.2377 150.545 26.7385 150.292 27.2684C149.987 27.9072 149.64 28.6328 148.897 29.4818C148.154 30.3308 147.481 30.7704 146.888 31.1578C146.396 31.4786 145.932 31.7816 145.529 32.242C145.212 32.6021 144.946 33.0047 144.739 33.4382C143.819 35.4358 144.598 38.0218 147.187 41.5808C149.974 45.4102 152.499 46.9523 154.295 45.9277C154.543 45.7884 154.765 45.6083 154.953 45.3951C155.835 44.3871 155.705 42.8422 155.503 41.6868C155.273 40.3802 155.518 39.3034 157.497 37.043C159.264 35.024 160.268 34.4287 161.797 34.4957C162.758 34.5379 163.528 34.4561 164.15 34.2467C164.978 33.9681 165.549 33.464 165.843 32.7457C166.308 31.6158 165.962 30.4292 164.813 29.218C163.932 28.2899 162.558 27.3178 160.612 26.2466ZM152.321 35.3533L151.378 36.431L152.454 37.3765C152.596 37.5019 152.683 37.6789 152.696 37.8687C152.708 38.0584 152.645 38.2452 152.52 38.3882C152.395 38.5311 152.218 38.6183 152.029 38.6307C151.839 38.6431 151.653 38.5796 151.51 38.4542L150.435 37.5086L149.492 38.5863C149.366 38.7292 149.19 38.8165 149.001 38.8289C148.811 38.8413 148.625 38.7778 148.482 38.6524C148.34 38.527 148.253 38.35 148.24 38.1603C148.228 37.9705 148.291 37.7837 148.416 37.6408L149.359 36.5631L148.284 35.6175C148.141 35.4921 148.054 35.3151 148.042 35.1254C148.03 34.9357 148.093 34.7488 148.218 34.6059C148.343 34.463 148.52 34.3758 148.709 34.3634C148.898 34.351 149.085 34.4145 149.227 34.5398L150.303 35.4854L151.246 34.4077C151.371 34.2648 151.548 34.1776 151.737 34.1652C151.926 34.1528 152.113 34.2163 152.255 34.3417C152.398 34.4671 152.485 34.6441 152.497 34.8338C152.51 35.0235 152.447 35.2104 152.321 35.3533ZM154.932 32.6426C154.815 32.7758 154.662 32.8714 154.491 32.9172C154.32 32.963 154.14 32.9571 153.972 32.9001C153.805 32.843 153.658 32.7376 153.551 32.5969C153.443 32.4563 153.379 32.2869 153.368 32.11C153.356 31.9332 153.397 31.7569 153.486 31.6034C153.574 31.4499 153.706 31.3262 153.865 31.2479C154.023 31.1695 154.201 31.1401 154.377 31.1633C154.552 31.1864 154.716 31.2612 154.849 31.3781C155.028 31.5348 155.137 31.7561 155.152 31.9932C155.167 32.2304 155.088 32.464 154.932 32.6426ZM157.708 32.4609C157.591 32.5942 157.438 32.6898 157.267 32.7356C157.096 32.7814 156.915 32.7754 156.748 32.7182C156.58 32.6611 156.433 32.5554 156.326 32.4146C156.218 32.2738 156.155 32.1042 156.143 31.9272C156.132 31.7503 156.173 31.5739 156.262 31.4205C156.351 31.2671 156.483 31.1436 156.642 31.0655C156.801 30.9874 156.979 30.9583 157.154 30.9819C157.33 31.0054 157.494 31.0806 157.627 31.1979C157.804 31.3548 157.913 31.5759 157.928 31.8127C157.943 32.0495 157.864 32.2826 157.708 32.4609ZM154.75 29.8606C154.634 29.9939 154.48 30.0894 154.31 30.1353C154.139 30.1811 153.958 30.1751 153.791 30.1181C153.623 30.0611 153.476 29.9556 153.369 29.815C153.261 29.6744 153.198 29.5049 153.186 29.3281C153.175 29.1512 153.216 28.9749 153.304 28.8215C153.392 28.668 153.524 28.5443 153.683 28.4659C153.841 28.3876 154.02 28.3581 154.195 28.3813C154.37 28.4045 154.535 28.4792 154.668 28.5961C154.846 28.7529 154.955 28.9741 154.97 29.2113C154.986 29.4484 154.907 29.682 154.75 29.8606ZM157.526 29.679C157.409 29.8122 157.256 29.9078 157.085 29.9536C156.914 29.9994 156.734 29.9935 156.566 29.9364C156.399 29.8794 156.252 29.774 156.145 29.6333C156.037 29.4927 155.973 29.3232 155.962 29.1464C155.95 28.9696 155.991 28.7933 156.08 28.6398C156.168 28.4863 156.3 28.3626 156.459 28.2843C156.617 28.2059 156.795 28.1765 156.971 28.1997C157.146 28.2228 157.311 28.2976 157.443 28.4145C157.622 28.5712 157.731 28.7925 157.746 29.0296C157.762 29.2668 157.682 29.5004 157.526 29.679Z" stroke="white" stroke-opacity="0.05"/>
<path d="M20.8289 77.2486C24.6767 75.1294 27.3376 74.6921 29.2032 75.8736C29.5947 76.1226 29.9481 76.4272 30.2522 76.7779C30.6563 77.2396 30.8961 77.7404 31.1494 78.2704C31.4545 78.9091 31.8012 79.6347 32.5444 80.4837C33.2875 81.3327 33.9601 81.7723 34.5532 82.1597C35.0451 82.4805 35.509 82.7836 35.9119 83.244C36.2294 83.6041 36.4953 84.0067 36.7021 84.4402C37.6227 86.4377 36.8437 89.0237 34.2546 92.5828C31.4678 96.4121 28.942 97.9542 27.146 96.9296C26.8985 96.7903 26.6761 96.6103 26.4883 96.397C25.606 95.3891 25.7363 93.8442 25.9388 92.6888C26.1689 91.3822 25.9234 90.3054 23.9448 88.045C22.1776 86.026 21.1731 85.4307 19.6444 85.4976C18.6834 85.5398 17.9136 85.458 17.2909 85.2487C16.463 84.9701 15.8922 84.466 15.5982 83.7477C15.1332 82.6178 15.4796 81.4312 16.6281 80.2199C17.5095 79.2918 18.8834 78.3197 20.8289 77.2486ZM29.12 86.3553L30.0633 87.4329L28.9879 88.3785C28.8453 88.5039 28.7582 88.6809 28.7458 88.8706C28.7334 89.0603 28.7967 89.2472 28.9218 89.3901C29.0469 89.533 29.2235 89.6203 29.4128 89.6326C29.6021 89.645 29.7886 89.5816 29.9312 89.4562L31.0066 88.5106L31.9499 89.5883C32.0749 89.7312 32.2516 89.8184 32.4408 89.8308C32.6301 89.8432 32.8166 89.7797 32.9592 89.6543C33.1018 89.5289 33.1889 89.3519 33.2013 89.1622C33.2137 88.9725 33.1503 88.7856 33.0253 88.6427L32.082 87.565L33.1574 86.6195C33.3 86.4941 33.3871 86.3171 33.3994 86.1273C33.4118 85.9376 33.3485 85.7508 33.2234 85.6079C33.0983 85.4649 32.9217 85.3777 32.7324 85.3653C32.5431 85.3529 32.3567 85.4164 32.2141 85.5418L31.1387 86.4874L30.1954 85.4097C30.0703 85.2668 29.8937 85.1795 29.7044 85.1671C29.5151 85.1548 29.3286 85.2182 29.186 85.3436C29.0434 85.469 28.9564 85.646 28.944 85.8358C28.9316 86.0255 28.9949 86.2123 29.12 86.3553ZM26.5094 83.6446C26.626 83.7778 26.7794 83.8733 26.9502 83.9192C27.121 83.965 27.3016 83.959 27.469 83.902C27.6365 83.845 27.7833 83.7395 27.8909 83.5989C27.9985 83.4583 28.0621 83.2888 28.0737 83.112C28.0852 82.9351 28.0442 82.7588 27.9558 82.6054C27.8673 82.4519 27.7355 82.3282 27.5769 82.2498C27.4183 82.1715 27.2401 82.142 27.0648 82.1652C26.8895 82.1884 26.7249 82.2631 26.592 82.38C26.4137 82.5368 26.3049 82.758 26.2894 82.9952C26.2739 83.2323 26.3531 83.4659 26.5094 83.6446ZM23.7337 83.4629C23.8504 83.5962 24.0039 83.6918 24.1748 83.7376C24.3457 83.7834 24.5263 83.7773 24.6938 83.7202C24.8613 83.663 25.0082 83.5574 25.1157 83.4166C25.2233 83.2758 25.2867 83.1061 25.2981 82.9292C25.3094 82.7522 25.2681 82.5759 25.1794 82.4225C25.0907 82.2691 24.9585 82.1455 24.7997 82.0674C24.6409 81.9893 24.4625 81.9602 24.2871 81.9838C24.1118 82.0074 23.9473 82.0826 23.8146 82.1998C23.637 82.3568 23.5288 82.5779 23.5136 82.8146C23.4985 83.0514 23.5776 83.2846 23.7337 83.4629ZM26.6911 80.8626C26.8077 80.9958 26.9611 81.0914 27.1319 81.1372C27.3027 81.183 27.4832 81.1771 27.6507 81.1201C27.8181 81.063 27.9649 80.9576 28.0726 80.8169C28.1802 80.6763 28.2438 80.5069 28.2553 80.33C28.2669 80.1532 28.2259 79.9769 28.1374 79.8234C28.049 79.6699 27.9172 79.5462 27.7586 79.4679C27.6 79.3895 27.4217 79.3601 27.2464 79.3833C27.0711 79.4064 26.9066 79.4812 26.7736 79.5981C26.5954 79.7548 26.4865 79.9761 26.4711 80.2132C26.4556 80.4504 26.5347 80.684 26.6911 80.8626ZM23.9154 80.6809C24.032 80.8142 24.1854 80.9097 24.3562 80.9555C24.527 81.0014 24.7075 80.9954 24.875 80.9384C25.0424 80.8814 25.1892 80.7759 25.2969 80.6353C25.4045 80.4947 25.4681 80.3252 25.4796 80.1484C25.4912 79.9715 25.4502 79.7952 25.3617 79.6417C25.2733 79.4883 25.1415 79.3646 24.9829 79.2862C24.8243 79.2079 24.646 79.1784 24.4707 79.2016C24.2954 79.2248 24.1309 79.2995 23.9979 79.4164C23.8197 79.5732 23.7108 79.7944 23.6954 80.0316C23.6799 80.2687 23.759 80.5023 23.9154 80.6809Z" fill="white" fill-opacity="0.05"/>
<path d="M212.964 20.9673C206.943 17.1351 202.673 16.1521 199.527 17.876C198.866 18.2393 198.262 18.6968 197.733 19.2343C197.03 19.9414 196.59 20.7287 196.125 21.562C195.564 22.5663 194.928 23.7072 193.635 25.0074C192.343 26.3075 191.207 26.9511 190.206 27.5183C189.375 27.9878 188.592 28.4315 187.891 29.1365C187.34 29.6877 186.867 30.3132 186.487 30.9949C184.789 34.1391 185.787 38.4126 189.62 44.4501C193.745 50.9462 197.683 53.7067 200.7 52.2302C201.116 52.0298 201.495 51.7607 201.821 51.4343C203.355 49.8906 203.303 47.3721 203.093 45.4778C202.854 43.3354 203.363 41.6147 206.803 38.1531C209.876 35.0612 211.566 34.1993 214.038 34.4652C215.592 34.6325 216.848 34.5791 217.88 34.3037C219.251 33.9371 220.228 33.1785 220.778 32.044C221.649 30.2598 221.209 28.3 219.471 26.2177C218.137 24.6221 216.009 22.9045 212.964 20.9673ZM198.585 34.8805L196.945 36.5309L198.592 38.1748C198.81 38.3928 198.933 38.6888 198.933 38.9977C198.934 39.3066 198.812 39.6031 198.595 39.822C198.377 40.0408 198.082 40.1641 197.774 40.1647C197.465 40.1653 197.17 40.0432 196.951 39.8252L195.305 38.1813L193.664 39.8317C193.447 40.0505 193.152 40.1738 192.843 40.1744C192.535 40.175 192.239 40.0529 192.021 39.8349C191.803 39.6169 191.68 39.3209 191.679 39.012C191.678 38.7031 191.8 38.4066 192.018 38.1877L193.658 36.5374L192.011 34.8935C191.793 34.6755 191.67 34.3795 191.669 34.0706C191.669 33.7617 191.791 33.4652 192.008 33.2463C192.226 33.0275 192.521 32.9042 192.829 32.9036C193.137 32.903 193.433 33.0251 193.652 33.2431L195.298 34.887L196.938 33.2366C197.156 33.0178 197.451 32.8945 197.759 32.8939C198.068 32.8933 198.363 33.0154 198.582 33.2334C198.8 33.4514 198.923 33.7474 198.924 34.0563C198.924 34.3652 198.803 34.6617 198.585 34.8805ZM203.097 30.7538C202.894 30.9578 202.635 31.097 202.354 31.1537C202.072 31.2104 201.78 31.1822 201.514 31.0725C201.248 30.9628 201.021 30.7767 200.861 30.5376C200.701 30.2985 200.615 30.0172 200.615 29.7292C200.614 29.4413 200.699 29.1596 200.858 28.9199C201.017 28.6801 201.244 28.4931 201.509 28.3824C201.774 28.2717 202.066 28.2423 202.348 28.2979C202.63 28.3535 202.889 28.4917 203.092 28.6949C203.365 28.9674 203.519 29.3374 203.52 29.7235C203.521 30.1096 203.368 30.4802 203.097 30.7538ZM207.616 30.7449C207.413 30.949 207.154 31.0882 206.873 31.1449C206.591 31.2016 206.298 31.1732 206.033 31.0633C205.767 30.9534 205.54 30.7669 205.38 30.5276C205.22 30.2882 205.134 30.0066 205.134 29.7185C205.134 29.4304 205.219 29.1487 205.379 28.9091C205.538 28.6695 205.765 28.4827 206.031 28.3725C206.296 28.2622 206.589 28.2334 206.871 28.2896C207.152 28.3459 207.411 28.4847 207.615 28.6886C207.886 28.9613 208.039 29.3309 208.039 29.7164C208.04 30.1019 207.887 30.4718 207.616 30.7449ZM203.088 26.2242C202.885 26.4282 202.626 26.5673 202.345 26.6241C202.063 26.6808 201.771 26.6525 201.505 26.5429C201.24 26.4332 201.012 26.247 200.852 26.0079C200.692 25.7688 200.606 25.4875 200.606 25.1996C200.605 24.9116 200.69 24.63 200.849 24.3902C201.008 24.1505 201.235 23.9634 201.5 23.8527C201.765 23.742 202.057 23.7126 202.339 23.7682C202.621 23.8239 202.88 23.962 203.084 24.1652C203.357 24.4377 203.51 24.8077 203.511 25.1938C203.512 25.58 203.36 25.9506 203.088 26.2242ZM207.607 26.2153C207.404 26.4193 207.146 26.5585 206.864 26.6152C206.582 26.6719 206.29 26.6437 206.025 26.534C205.759 26.4243 205.532 26.2381 205.372 25.999C205.212 25.7599 205.126 25.4786 205.125 25.1907C205.125 24.9027 205.209 24.6211 205.369 24.3814C205.528 24.1416 205.754 23.9546 206.019 23.8439C206.285 23.7331 206.577 23.7037 206.859 23.7594C207.14 23.815 207.4 23.9531 207.603 24.1563C207.876 24.4288 208.03 24.7988 208.031 25.185C208.031 25.5711 207.879 25.9417 207.607 26.2153Z" stroke="white" stroke-opacity="0.05"/>
<path d="M310.79 71.9698C316.811 68.1375 321.081 67.1546 324.227 68.8784C324.888 69.2417 325.492 69.6993 326.021 70.2367C326.724 70.9438 327.164 71.7312 327.629 72.5644C328.19 73.5687 328.826 74.7096 330.118 76.0098C331.411 77.31 332.546 77.9536 333.548 78.5207C334.378 78.9902 335.162 79.4339 335.863 80.139C336.414 80.6902 336.887 81.3156 337.267 81.9973C338.965 85.1416 337.967 89.415 334.134 95.4525C330.009 101.949 326.071 104.709 323.054 103.233C322.638 103.032 322.259 102.763 321.933 102.437C320.399 100.893 320.451 98.3746 320.661 96.4803C320.9 94.3379 320.391 92.6172 316.951 89.1555C313.878 86.0636 312.188 85.2017 309.716 85.4676C308.162 85.6349 306.906 85.5815 305.874 85.3062C304.503 84.9396 303.526 84.181 302.975 83.0464C302.105 81.2622 302.545 79.3024 304.283 77.2202C305.617 75.6245 307.745 73.9069 310.79 71.9698ZM325.169 85.883L326.809 87.5334L325.162 89.1773C324.944 89.3953 324.821 89.6913 324.82 90.0002C324.82 90.3091 324.942 90.6056 325.159 90.8244C325.377 91.0433 325.672 91.1666 325.98 91.1672C326.288 91.1678 326.584 91.0457 326.803 90.8277L328.449 89.1837L330.09 90.8341C330.307 91.053 330.602 91.1763 330.911 91.1769C331.219 91.1775 331.515 91.0553 331.733 90.8373C331.951 90.6193 332.074 90.3233 332.075 90.0144C332.076 89.7055 331.954 89.409 331.736 89.1902L330.096 87.5398L331.743 85.8959C331.961 85.6779 332.084 85.3819 332.085 85.073C332.085 84.7641 331.963 84.4676 331.746 84.2488C331.528 84.0299 331.233 83.9066 330.925 83.906C330.617 83.9054 330.321 84.0275 330.102 84.2455L328.456 85.8894L326.816 84.2391C326.598 84.0202 326.303 83.8969 325.994 83.8963C325.686 83.8957 325.39 84.0178 325.172 84.2358C324.954 84.4538 324.831 84.7498 324.83 85.0587C324.829 85.3676 324.951 85.6641 325.169 85.883ZM320.657 81.7562C320.86 81.9603 321.119 82.0994 321.4 82.1562C321.682 82.2129 321.974 82.1846 322.24 82.075C322.505 81.9653 322.733 81.7791 322.893 81.54C323.053 81.3009 323.139 81.0196 323.139 80.7317C323.14 80.4437 323.055 80.1621 322.896 79.9223C322.737 79.6826 322.51 79.4955 322.245 79.3848C321.98 79.2741 321.688 79.2447 321.406 79.3003C321.124 79.356 320.865 79.4941 320.661 79.6973C320.388 79.9698 320.235 80.3398 320.234 80.7259C320.233 81.1121 320.386 81.4827 320.657 81.7562ZM316.138 81.7474C316.341 81.9515 316.6 82.0907 316.881 82.1474C317.163 82.204 317.455 82.1756 317.721 82.0657C317.987 81.9558 318.214 81.7694 318.374 81.53C318.534 81.2906 318.619 81.0091 318.62 80.7209C318.62 80.4328 318.535 80.1512 318.375 79.9115C318.216 79.6719 317.989 79.4852 317.723 79.3749C317.458 79.2646 317.165 79.2358 316.883 79.2921C316.601 79.3483 316.343 79.4872 316.139 79.691C315.868 79.9637 315.715 80.3334 315.714 80.7189C315.714 81.1044 315.866 81.4743 316.138 81.7474ZM320.666 77.2266C320.869 77.4306 321.128 77.5698 321.409 77.6265C321.691 77.6832 321.983 77.655 322.249 77.5453C322.514 77.4356 322.742 77.2495 322.902 77.0104C323.062 76.7713 323.147 76.4899 323.148 76.202C323.149 75.9141 323.064 75.6324 322.905 75.3927C322.746 75.1529 322.519 74.9659 322.254 74.8552C321.989 74.7445 321.697 74.7151 321.415 74.7707C321.133 74.8263 320.874 74.9644 320.67 75.1677C320.397 75.4402 320.244 75.8102 320.243 76.1963C320.242 76.5824 320.394 76.953 320.666 77.2266ZM316.147 77.2177C316.35 77.4217 316.608 77.5609 316.89 77.6176C317.171 77.6744 317.464 77.6461 317.729 77.5364C317.995 77.4268 318.222 77.2406 318.382 77.0015C318.542 76.7624 318.628 76.4811 318.629 76.1931C318.629 75.9052 318.544 75.6235 318.385 75.3838C318.226 75.1441 318 74.957 317.734 74.8463C317.469 74.7356 317.177 74.7062 316.895 74.7618C316.613 74.8174 316.354 74.9556 316.151 75.1588C315.878 75.4313 315.724 75.8013 315.723 76.1874C315.723 76.5735 315.875 76.9442 316.147 77.2177Z" fill="white" fill-opacity="0.05"/>
<path d="M281.256 31.3857C279.546 24.4508 277.136 20.7876 273.672 19.8586C272.943 19.6647 272.191 19.5778 271.437 19.6005C270.441 19.6259 269.58 19.891 268.668 20.1718C267.57 20.5106 266.323 20.8954 264.491 20.9421C262.66 20.9888 261.394 20.6689 260.279 20.3866C259.354 20.1518 258.482 19.931 257.489 19.9564C256.709 19.9735 255.936 20.099 255.191 20.3294C251.794 21.4291 249.567 25.2091 248.173 32.2253C246.674 39.7754 247.617 44.4942 250.818 45.5129C251.256 45.6553 251.716 45.7228 252.177 45.7125C254.352 45.6571 256.051 43.7994 257.207 42.2846C258.512 40.5702 260.067 39.6776 264.943 39.5532C269.299 39.442 271.116 39.9874 272.72 41.8888C273.728 43.0843 274.673 43.9145 275.609 44.4285C276.854 45.1114 278.084 45.2387 279.265 44.7988C281.125 44.1102 282.159 42.3889 282.339 39.6814C282.475 37.6053 282.121 34.8918 281.256 31.3857ZM261.259 31.5043L258.934 31.5636L258.99 33.891C258.998 34.1996 258.883 34.4987 258.67 34.7225C258.457 34.9463 258.164 35.0765 257.856 35.0843C257.548 35.0922 257.249 34.9771 257.026 34.7645C256.803 34.5518 256.673 34.2589 256.666 33.9503L256.609 31.6229L254.284 31.6822C253.976 31.6901 253.677 31.575 253.454 31.3623C253.231 31.1497 253.101 30.8568 253.093 30.5482C253.086 30.2395 253.201 29.9404 253.414 29.7166C253.627 29.4928 253.919 29.3627 254.228 29.3548L256.552 29.2955L256.496 26.9681C256.488 26.6595 256.604 26.3604 256.816 26.1366C257.029 25.9128 257.322 25.7827 257.63 25.7748C257.938 25.7669 258.237 25.882 258.46 26.0947C258.683 26.3073 258.813 26.6002 258.821 26.9088L258.877 29.2362L261.202 29.1769C261.51 29.169 261.809 29.2841 262.032 29.4968C262.255 29.7094 262.385 30.0023 262.393 30.3109C262.4 30.6196 262.285 30.9187 262.072 31.1425C261.86 31.3663 261.567 31.4964 261.259 31.5043ZM267.368 31.6395C267.081 31.6469 266.798 31.5687 266.555 31.415C266.312 31.2612 266.12 31.0388 266.004 30.7758C265.888 30.5128 265.852 30.2211 265.901 29.9375C265.95 29.6539 266.082 29.3912 266.28 29.1826C266.479 28.9739 266.734 28.8288 267.015 28.7655C267.295 28.7022 267.588 28.7235 267.856 28.8268C268.124 28.9302 268.356 29.1108 268.521 29.346C268.687 29.5811 268.779 29.8602 268.786 30.1478C268.795 30.5336 268.651 30.9075 268.385 31.1873C268.119 31.467 267.754 31.6297 267.368 31.6395ZM270.643 34.7581C270.355 34.7655 270.072 34.6872 269.829 34.5333C269.586 34.3794 269.394 34.1568 269.278 33.8936C269.162 33.6304 269.126 33.3384 269.175 33.0547C269.225 32.771 269.357 32.5083 269.556 32.2998C269.755 32.0914 270.011 31.9465 270.291 31.8836C270.572 31.8207 270.865 31.8425 271.133 31.9464C271.401 32.0503 271.632 32.2315 271.797 32.4672C271.963 32.7028 272.054 32.9822 272.06 33.2701C272.069 33.6553 271.924 34.0282 271.658 34.3072C271.393 34.5861 271.027 34.7483 270.643 34.7581ZM270.487 28.3578C270.2 28.3652 269.917 28.287 269.674 28.1333C269.431 27.9795 269.239 27.7571 269.123 27.4941C269.006 27.2311 268.97 26.9394 269.02 26.6558C269.069 26.3722 269.201 26.1095 269.399 25.9009C269.598 25.6922 269.853 25.5471 270.134 25.4838C270.414 25.4205 270.707 25.4418 270.975 25.5451C271.243 25.6485 271.475 25.8291 271.64 26.0643C271.806 26.2994 271.898 26.5785 271.905 26.8662C271.914 27.2519 271.77 27.6258 271.504 27.9056C271.238 28.1853 270.872 28.348 270.487 28.3578ZM273.761 31.4764C273.474 31.4838 273.191 31.4056 272.948 31.2519C272.705 31.0981 272.514 30.8757 272.397 30.6127C272.281 30.3497 272.245 30.058 272.294 29.7744C272.343 29.4908 272.475 29.2281 272.674 29.0195C272.872 28.8108 273.127 28.6657 273.408 28.6024C273.688 28.5391 273.981 28.5604 274.249 28.6637C274.518 28.7671 274.749 28.9477 274.914 29.1829C275.08 29.418 275.172 29.6971 275.179 29.9848C275.188 30.3705 275.044 30.7444 274.778 31.0242C274.513 31.3039 274.147 31.4666 273.761 31.4764Z" fill="white" fill-opacity="0.05"/>
<path d="M242.498 82.3881C244.208 75.4533 246.618 71.7901 250.082 70.8611C250.81 70.6671 251.563 70.5802 252.317 70.6029C253.313 70.6284 254.174 70.8934 255.085 71.1743C256.184 71.513 257.431 71.8978 259.263 71.9446C261.094 71.9913 262.36 71.6713 263.475 71.389C264.4 71.1543 265.272 70.9335 266.265 70.9588C267.045 70.9759 267.818 71.1015 268.563 71.3318C271.96 72.4315 274.187 76.2115 275.581 83.2277C277.08 90.7779 276.137 95.4966 272.936 96.5153C272.498 96.6578 272.038 96.7253 271.576 96.715C269.402 96.6595 267.703 94.8018 266.547 93.287C265.242 91.5726 263.687 90.68 258.81 90.5556C254.455 90.4445 252.638 90.9898 251.034 92.8913C250.026 94.0867 249.08 94.917 248.145 95.4309C246.9 96.1138 245.67 96.2411 244.489 95.8013C242.629 95.1126 241.595 93.3913 241.415 90.6838C241.279 88.6077 241.633 85.8942 242.498 82.3881ZM262.495 82.5067L264.82 82.566L264.764 84.8934C264.756 85.202 264.871 85.5012 265.084 85.725C265.297 85.9488 265.589 86.0789 265.898 86.0868C266.206 86.0946 266.505 85.9796 266.728 85.7669C266.951 85.5542 267.081 85.2614 267.088 84.9527L267.145 82.6253L269.47 82.6847C269.778 82.6925 270.077 82.5775 270.3 82.3648C270.523 82.1521 270.653 81.8592 270.66 81.5506C270.668 81.242 270.553 80.9429 270.34 80.7191C270.127 80.4953 269.835 80.3651 269.526 80.3573L267.201 80.298L267.258 77.9706C267.266 77.662 267.15 77.3628 266.938 77.139C266.725 76.9153 266.432 76.7851 266.124 76.7772C265.816 76.7694 265.517 76.8844 265.294 77.0971C265.07 77.3098 264.941 77.6026 264.933 77.9113L264.877 80.2387L262.552 80.1793C262.244 80.1715 261.945 80.2865 261.722 80.4992C261.498 80.7119 261.369 81.0048 261.361 81.3134C261.354 81.622 261.469 81.9211 261.682 82.1449C261.894 82.3687 262.187 82.4989 262.495 82.5067ZM256.386 82.642C256.673 82.6493 256.956 82.5712 257.199 82.4174C257.442 82.2637 257.634 82.0412 257.75 81.7783C257.866 81.5153 257.902 81.2235 257.853 80.9399C257.804 80.6563 257.672 80.3936 257.473 80.185C257.275 79.9764 257.02 79.8312 256.739 79.7679C256.459 79.7046 256.166 79.726 255.898 79.8293C255.63 79.9326 255.398 80.1133 255.233 80.3484C255.067 80.5835 254.975 80.8626 254.968 81.1503C254.959 81.5361 255.103 81.91 255.369 82.1897C255.635 82.4695 256 82.6321 256.386 82.642ZM253.111 85.7606C253.399 85.7679 253.682 85.6897 253.925 85.5358C254.168 85.3819 254.36 85.1592 254.476 84.896C254.592 84.6328 254.628 84.3409 254.578 84.0572C254.529 83.7735 254.397 83.5108 254.198 83.3023C253.999 83.0938 253.743 82.9489 253.463 82.886C253.182 82.8231 252.889 82.845 252.621 82.9489C252.353 83.0527 252.121 83.234 251.956 83.4696C251.791 83.7052 251.7 83.9847 251.694 84.2725C251.685 84.6577 251.83 85.0307 252.096 85.3096C252.361 85.5886 252.727 85.7508 253.111 85.7606ZM253.267 79.3603C253.554 79.3676 253.837 79.2895 254.08 79.1357C254.323 78.982 254.515 78.7596 254.631 78.4966C254.748 78.2336 254.783 77.9418 254.734 77.6582C254.685 77.3746 254.553 77.1119 254.355 76.9033C254.156 76.6947 253.901 76.5495 253.62 76.4862C253.34 76.4229 253.047 76.4443 252.779 76.5476C252.511 76.6509 252.279 76.8316 252.114 77.0667C251.948 77.3018 251.856 77.5809 251.849 77.8686C251.84 78.2544 251.984 78.6283 252.25 78.908C252.516 79.1878 252.882 79.3504 253.267 79.3603ZM249.993 82.4789C250.28 82.4862 250.563 82.4081 250.806 82.2543C251.049 82.1006 251.24 81.8782 251.357 81.6152C251.473 81.3522 251.509 81.0604 251.46 80.7768C251.411 80.4932 251.279 80.2305 251.08 80.0219C250.882 79.8133 250.627 79.6681 250.346 79.6048C250.066 79.5415 249.773 79.5629 249.505 79.6662C249.236 79.7695 249.005 79.9502 248.839 80.1853C248.674 80.4204 248.582 80.6995 248.575 80.9872C248.566 81.373 248.71 81.7469 248.975 82.0266C249.241 82.3064 249.607 82.469 249.993 82.4789Z" stroke="white" stroke-opacity="0.05"/>
<path d="M331.769 26.2466C327.921 24.1275 325.26 23.6902 323.394 24.8717C323.003 25.1206 322.65 25.4252 322.345 25.776C321.941 26.2377 321.702 26.7385 321.448 27.2684C321.143 27.9072 320.796 28.6328 320.053 29.4818C319.31 30.3308 318.638 30.7704 318.044 31.1578C317.553 31.4786 317.089 31.7816 316.686 32.242C316.368 32.6021 316.102 33.0047 315.896 33.4382C314.975 35.4358 315.754 38.0218 318.343 41.5808C321.13 45.4102 323.656 46.9523 325.452 45.9277C325.699 45.7884 325.922 45.6083 326.109 45.3951C326.992 44.3871 326.861 42.8422 326.659 41.6868C326.429 40.3802 326.674 39.3034 328.653 37.043C330.42 35.024 331.425 34.4287 332.953 34.4957C333.914 34.5379 334.684 34.4561 335.307 34.2467C336.135 33.9681 336.705 33.464 336.999 32.7457C337.464 31.6158 337.118 30.4292 335.97 29.218C335.088 28.2899 333.714 27.3178 331.769 26.2466ZM323.478 35.3533L322.534 36.431L323.61 37.3765C323.752 37.5019 323.839 37.6789 323.852 37.8687C323.864 38.0584 323.801 38.2452 323.676 38.3882C323.551 38.5311 323.374 38.6183 323.185 38.6307C322.996 38.6431 322.809 38.5796 322.666 38.4542L321.591 37.5086L320.648 38.5863C320.523 38.7292 320.346 38.8165 320.157 38.8289C319.968 38.8413 319.781 38.7778 319.638 38.6524C319.496 38.527 319.409 38.35 319.396 38.1603C319.384 37.9705 319.447 37.7837 319.572 37.6408L320.516 36.5631L319.44 35.6175C319.298 35.4921 319.211 35.3151 319.198 35.1254C319.186 34.9357 319.249 34.7488 319.374 34.6059C319.499 34.463 319.676 34.3758 319.865 34.3634C320.055 34.351 320.241 34.4145 320.384 34.5398L321.459 35.4854L322.402 34.4077C322.527 34.2648 322.704 34.1776 322.893 34.1652C323.083 34.1528 323.269 34.2163 323.412 34.3417C323.554 34.4671 323.641 34.6441 323.654 34.8338C323.666 35.0235 323.603 35.2104 323.478 35.3533ZM326.088 32.6426C325.972 32.7758 325.818 32.8714 325.647 32.9172C325.477 32.963 325.296 32.9571 325.129 32.9001C324.961 32.843 324.814 32.7376 324.707 32.5969C324.599 32.4563 324.536 32.2869 324.524 32.11C324.512 31.9332 324.553 31.7569 324.642 31.6034C324.73 31.4499 324.862 31.3262 325.021 31.2479C325.179 31.1695 325.358 31.1401 325.533 31.1633C325.708 31.1864 325.873 31.2612 326.006 31.3781C326.184 31.5348 326.293 31.7561 326.308 31.9932C326.324 32.2304 326.245 32.464 326.088 32.6426ZM328.864 32.4609C328.747 32.5942 328.594 32.6898 328.423 32.7356C328.252 32.7814 328.071 32.7754 327.904 32.7182C327.736 32.6611 327.59 32.5554 327.482 32.4146C327.374 32.2738 327.311 32.1042 327.3 31.9272C327.288 31.7503 327.33 31.5739 327.418 31.4205C327.507 31.2671 327.639 31.1436 327.798 31.0655C327.957 30.9874 328.135 30.9583 328.311 30.9819C328.486 31.0054 328.65 31.0806 328.783 31.1979C328.961 31.3548 329.069 31.5759 329.084 31.8127C329.099 32.0495 329.02 32.2826 328.864 32.4609ZM325.907 29.8606C325.79 29.9939 325.637 30.0894 325.466 30.1353C325.295 30.1811 325.114 30.1751 324.947 30.1181C324.78 30.0611 324.633 29.9556 324.525 29.815C324.417 29.6744 324.354 29.5049 324.342 29.3281C324.331 29.1512 324.372 28.9749 324.46 28.8215C324.549 28.668 324.681 28.5443 324.839 28.4659C324.998 28.3876 325.176 28.3581 325.351 28.3813C325.527 28.4045 325.691 28.4792 325.824 28.5961C326.002 28.7529 326.111 28.9741 326.127 29.2113C326.142 29.4484 326.063 29.682 325.907 29.8606ZM328.682 29.679C328.566 29.8122 328.412 29.9078 328.241 29.9536C328.071 29.9994 327.89 29.9935 327.723 29.9364C327.555 29.8794 327.408 29.774 327.301 29.6333C327.193 29.4927 327.13 29.3232 327.118 29.1464C327.106 28.9696 327.147 28.7933 327.236 28.6398C327.324 28.4863 327.456 28.3626 327.615 28.2843C327.773 28.2059 327.952 28.1765 328.127 28.1997C328.302 28.2228 328.467 28.2976 328.6 28.4145C328.778 28.5712 328.887 28.7925 328.902 29.0296C328.918 29.2668 328.839 29.5004 328.682 29.679Z" stroke="white" stroke-opacity="0.05"/>
<path d="M191.985 77.2486C195.833 75.1294 198.494 74.6921 200.359 75.8736C200.751 76.1226 201.104 76.4272 201.408 76.7779C201.813 77.2396 202.052 77.7404 202.306 78.2704C202.611 78.9091 202.957 79.6347 203.701 80.4837C204.444 81.3327 205.116 81.7723 205.709 82.1597C206.201 82.4805 206.665 82.7836 207.068 83.244C207.386 83.6041 207.652 84.0067 207.858 84.4402C208.779 86.4377 208 89.0237 205.411 92.5828C202.624 96.4121 200.098 97.9542 198.302 96.9296C198.055 96.7903 197.832 96.6103 197.645 96.397C196.762 95.3891 196.893 93.8442 197.095 92.6888C197.325 91.3822 197.08 90.3054 195.101 88.045C193.334 86.026 192.329 85.4307 190.801 85.4976C189.84 85.5398 189.07 85.458 188.447 85.2487C187.619 84.9701 187.048 84.466 186.754 83.7477C186.289 82.6178 186.636 81.4312 187.784 80.2199C188.666 79.2918 190.04 78.3197 191.985 77.2486ZM200.276 86.3553L201.22 87.4329L200.144 88.3785C200.002 88.5039 199.914 88.6809 199.902 88.8706C199.89 89.0603 199.953 89.2472 200.078 89.3901C200.203 89.533 200.38 89.6203 200.569 89.6326C200.758 89.645 200.945 89.5816 201.087 89.4562L202.163 88.5106L203.106 89.5883C203.231 89.7312 203.408 89.8184 203.597 89.8308C203.786 89.8432 203.973 89.7797 204.115 89.6543C204.258 89.5289 204.345 89.3519 204.358 89.1622C204.37 88.9725 204.307 88.7856 204.182 88.6427L203.238 87.565L204.314 86.6195C204.456 86.4941 204.543 86.3171 204.556 86.1273C204.568 85.9376 204.505 85.7508 204.38 85.6079C204.255 85.4649 204.078 85.3777 203.889 85.3653C203.699 85.3529 203.513 85.4164 203.37 85.5418L202.295 86.4874L201.352 85.4097C201.227 85.2668 201.05 85.1795 200.861 85.1671C200.671 85.1548 200.485 85.2182 200.342 85.3436C200.2 85.469 200.113 85.646 200.1 85.8358C200.088 86.0255 200.151 86.2123 200.276 86.3553ZM197.666 83.6446C197.782 83.7778 197.936 83.8733 198.106 83.9192C198.277 83.965 198.458 83.959 198.625 83.902C198.793 83.845 198.94 83.7395 199.047 83.5989C199.155 83.4583 199.218 83.2888 199.23 83.112C199.241 82.9351 199.2 82.7588 199.112 82.6054C199.024 82.4519 198.892 82.3282 198.733 82.2498C198.575 82.1715 198.396 82.142 198.221 82.1652C198.046 82.1884 197.881 82.2631 197.748 82.38C197.57 82.5368 197.461 82.758 197.446 82.9952C197.43 83.2323 197.509 83.4659 197.666 83.6446ZM194.89 83.4629C195.007 83.5962 195.16 83.6918 195.331 83.7376C195.502 83.7834 195.683 83.7773 195.85 83.7202C196.018 83.663 196.164 83.5574 196.272 83.4166C196.38 83.2758 196.443 83.1061 196.454 82.9292C196.466 82.7522 196.424 82.5759 196.336 82.4225C196.247 82.2691 196.115 82.1455 195.956 82.0674C195.797 81.9893 195.619 81.9602 195.443 81.9838C195.268 82.0074 195.104 82.0826 194.971 82.1998C194.793 82.3568 194.685 82.5779 194.67 82.8146C194.655 83.0514 194.734 83.2846 194.89 83.4629ZM197.847 80.8626C197.964 80.9958 198.117 81.0914 198.288 81.1372C198.459 81.183 198.639 81.1771 198.807 81.1201C198.974 81.063 199.121 80.9576 199.229 80.8169C199.336 80.6763 199.4 80.5069 199.412 80.33C199.423 80.1532 199.382 79.9769 199.294 79.8234C199.205 79.6699 199.073 79.5462 198.915 79.4679C198.756 79.3895 198.578 79.3601 198.403 79.3833C198.227 79.4064 198.063 79.4812 197.93 79.5981C197.752 79.7548 197.643 79.9761 197.627 80.2132C197.612 80.4504 197.691 80.684 197.847 80.8626ZM195.072 80.6809C195.188 80.8142 195.342 80.9097 195.512 80.9555C195.683 81.0014 195.864 80.9954 196.031 80.9384C196.199 80.8814 196.345 80.7759 196.453 80.6353C196.561 80.4947 196.624 80.3252 196.636 80.1484C196.647 79.9715 196.606 79.7952 196.518 79.6417C196.43 79.4883 196.298 79.3646 196.139 79.2862C195.981 79.2079 195.802 79.1784 195.627 79.2016C195.452 79.2248 195.287 79.2995 195.154 79.4164C194.976 79.5732 194.867 79.7944 194.852 80.0316C194.836 80.2687 194.915 80.5023 195.072 80.6809Z" fill="white" fill-opacity="0.05"/>
</svg>
