<svg width="48" height="47" viewBox="0 0 48 47" fill="none" xmlns="http://www.w3.org/2000/svg">
<rect x="0.878906" width="47" height="47" rx="4" fill="#4B4F53"/>
<path d="M19.2863 25.7613C17.8051 25.7613 16.5974 24.4154 16.5974 22.769C16.5974 21.1211 17.7752 19.7752 19.2878 19.7752C20.7832 19.7752 22.0081 21.1211 21.9782 22.769C21.9782 24.4154 20.7832 25.7613 19.2863 25.7613ZM29.219 25.7599C27.7378 25.7599 26.5272 24.414 26.5272 22.7676C26.5272 21.1197 27.7079 19.7738 29.219 19.7738C30.7145 19.7738 31.9393 21.1197 31.9108 22.7676C31.9108 24.414 30.7301 25.7599 29.219 25.7599ZM21.5723 12.1954L21.1336 11.3936L20.2306 11.5445C18.1842 11.8858 16.1926 12.4989 14.3086 13.3676L13.9839 13.5171L13.7817 13.8162C10.0601 19.3038 9.03892 24.7088 9.54453 30.0169L9.60007 30.5966L10.0701 30.9384C12.2594 32.5448 14.7047 33.7694 17.3024 34.5603L18.4275 34.9049L20.0127 31.0367C22.733 31.7089 25.7524 31.7089 28.4713 31.0367L30.0479 34.9064L31.1731 34.5617C33.7729 33.7725 36.2195 32.5468 38.4082 30.937L38.874 30.598L38.9309 30.0255C39.5519 23.8728 37.9382 18.5133 34.718 13.8119L34.5158 13.5157L34.191 13.3676C32.3075 12.5028 30.3183 11.8899 28.2747 11.5445L27.3946 11.3978L26.9473 12.1698C26.822 12.3834 26.6953 12.6255 26.5728 12.8719C25.0278 12.7123 23.4705 12.7123 21.9255 12.8719C21.8044 12.6298 21.6833 12.3962 21.5723 12.1954ZM16.7156 29.6979C16.9962 29.8603 17.2924 30.0198 17.5844 30.1651L16.9449 31.726C15.2153 31.0956 13.5743 30.2444 12.0626 29.1937C11.7421 24.7245 12.6508 20.2139 15.7143 15.5637C17.0072 14.9943 18.3549 14.5586 19.7364 14.2634C19.8219 14.4414 19.9016 14.6166 19.9671 14.7704L20.356 15.6862L21.3415 15.5424C23.2729 15.2594 25.2353 15.2594 27.1667 15.5424L28.1494 15.6848L28.5368 14.7704C28.6037 14.6109 28.6821 14.4372 28.7647 14.2634C30.1562 14.5625 31.5035 15.004 32.7924 15.5666C35.4629 19.5829 36.8102 24.0636 36.4186 29.1923C34.907 30.2453 33.2649 31.0971 31.5334 31.726L30.8996 30.1665C31.193 30.0212 31.4893 29.8617 31.7727 29.6979C32.4706 29.2963 33.2211 28.7949 33.6997 28.3164L31.8767 26.4934C31.6445 26.7269 31.1318 27.0916 30.4852 27.4647C29.8528 27.8293 29.2247 28.1241 28.8231 28.2566C25.9703 29.2009 22.5165 29.2009 19.6623 28.2566C19.2621 28.1241 18.634 27.8293 18.0017 27.4647C17.3551 27.093 16.8423 26.7269 16.6088 26.4934L14.7857 28.3164C15.2657 28.7949 16.0177 29.2963 16.7156 29.6979Z" fill="white"/>
</svg>
