<svg width="48" height="47" viewBox="0 0 48 47" fill="none" xmlns="http://www.w3.org/2000/svg">
<rect x="0.939453" width="47" height="47" rx="4" fill="#4B4F53"/>
<path d="M12.334 22.7875C12.334 17.4167 12.334 14.7306 14.0032 13.0628C15.671 11.3936 18.3571 11.3936 23.7279 11.3936H26.5764C31.9472 11.3936 34.6333 11.3936 36.3011 13.0628C37.9703 14.7306 37.9703 17.4167 37.9703 22.7875V25.636C37.9703 31.0068 37.9703 33.6929 36.3011 35.3607C34.6333 37.0299 31.9472 37.0299 26.5764 37.0299H23.7279C18.3571 37.0299 15.671 37.0299 14.0032 35.3607C12.334 33.6929 12.334 31.0068 12.334 25.636V22.7875Z" stroke="white" stroke-width="2"/>
<path d="M31.5621 19.9387C32.742 19.9387 33.6985 18.9823 33.6985 17.8024C33.6985 16.6225 32.742 15.666 31.5621 15.666C30.3823 15.666 29.4258 16.6225 29.4258 17.8024C29.4258 18.9823 30.3823 19.9387 31.5621 19.9387Z" fill="white"/>
<path d="M25.1516 28.4839C27.5114 28.4839 29.4244 26.571 29.4244 24.2112C29.4244 21.8514 27.5114 19.9385 25.1516 19.9385C22.7919 19.9385 20.8789 21.8514 20.8789 24.2112C20.8789 26.571 22.7919 28.4839 25.1516 28.4839Z" stroke="white" stroke-width="2"/>
</svg>
