<svg width="34" height="34" viewBox="0 0 34 34" fill="none" xmlns="http://www.w3.org/2000/svg">
<rect x="1" y="1" width="32" height="32" rx="10" fill="#ACFF24" stroke="white" stroke-width="2"/>
<path d="M22.8918 8.41902C19.1626 6.04824 16.5182 5.44012 14.5696 6.50657C14.1606 6.73133 13.7864 7.01439 13.4586 7.34687C13.0234 7.78431 12.7508 8.27141 12.4627 8.78689C12.1156 9.40821 11.7214 10.114 10.9211 10.9184C10.1208 11.7227 9.41737 12.1209 8.79719 12.4717C8.2828 12.7622 7.79765 13.0367 7.3637 13.4728C7.02201 13.8139 6.72935 14.2008 6.49412 14.6225C5.44257 16.5677 6.06035 19.2114 8.4341 22.9465C10.9891 26.9653 13.4275 28.673 15.2963 27.7596C15.5537 27.6356 15.7884 27.4692 15.9907 27.2672C16.9408 26.3123 16.9081 24.7542 16.7783 23.5823C16.6303 22.2569 16.9454 21.1924 19.0761 19.0509C20.9791 17.1381 22.0258 16.6049 23.5567 16.7694C24.5191 16.8729 25.2973 16.8398 25.936 16.6695C26.7851 16.4427 27.3904 15.9734 27.7313 15.2715C28.2702 14.1677 27.9977 12.9553 26.9214 11.6671C26.0954 10.68 24.7774 9.61742 22.8918 8.41902ZM13.9865 17.0264L12.9707 18.0473L13.9905 19.0643C14.1257 19.1992 14.2019 19.3823 14.2023 19.5734C14.2027 19.7645 14.1272 19.948 13.9925 20.0833C13.8578 20.2187 13.6749 20.295 13.484 20.2954C13.2931 20.2958 13.1099 20.2202 12.9747 20.0853L11.9548 19.0683L10.939 20.0893C10.8043 20.2247 10.6214 20.301 10.4305 20.3014C10.2397 20.3017 10.0564 20.2262 9.92121 20.0913C9.78597 19.9565 9.70979 19.7733 9.70941 19.5822C9.70904 19.3911 9.78451 19.2077 9.91921 19.0723L10.935 18.0513L9.91522 17.0343C9.77999 16.8995 9.7038 16.7164 9.70343 16.5253C9.70305 16.3342 9.77852 16.1507 9.91323 16.0153C10.0479 15.8799 10.2308 15.8037 10.4217 15.8033C10.6126 15.8029 10.7958 15.8785 10.931 16.0133L11.9509 17.0303L12.9667 16.0094C13.1014 15.874 13.2843 15.7977 13.4752 15.7973C13.6661 15.7969 13.8493 15.8725 13.9845 16.0074C14.1197 16.1422 14.1959 16.3253 14.1963 16.5164C14.1967 16.7075 14.1212 16.891 13.9865 17.0264ZM16.7805 14.4734C16.6549 14.5996 16.4948 14.6857 16.3204 14.7208C16.1459 14.7559 15.965 14.7384 15.8005 14.6705C15.636 14.6027 15.4952 14.4875 15.3961 14.3396C15.2969 14.1917 15.2438 14.0176 15.2435 13.8395C15.2431 13.6614 15.2956 13.4871 15.3941 13.3388C15.4927 13.1905 15.633 13.0748 15.7972 13.0063C15.9615 12.9378 16.1423 12.9196 16.3169 12.954C16.4915 12.9884 16.6519 13.0739 16.778 13.1996C16.9471 13.3682 17.0423 13.5971 17.0428 13.836C17.0432 14.0748 16.9489 14.3041 16.7805 14.4734ZM19.5795 14.4679C19.4539 14.5942 19.2936 14.6803 19.1191 14.7153C18.9445 14.7504 18.7635 14.7328 18.599 14.6648C18.4344 14.5968 18.2937 14.4815 18.1946 14.3334C18.0956 14.1853 18.0426 14.0111 18.0425 13.8329C18.0424 13.6547 18.0951 13.4804 18.1939 13.3322C18.2928 13.1839 18.4333 13.0684 18.5978 13.0002C18.7622 12.9319 18.9432 12.9141 19.1178 12.9489C19.2924 12.9837 19.4528 13.0696 19.5786 13.1957C19.747 13.3644 19.8416 13.5931 19.8418 13.8316C19.8419 14.0701 19.7476 14.2989 19.5795 14.4679ZM16.775 11.6711C16.6495 11.7973 16.4893 11.8834 16.3149 11.9185C16.1404 11.9536 15.9595 11.9361 15.795 11.8683C15.6305 11.8004 15.4897 11.6853 15.3906 11.5374C15.2915 11.3894 15.2384 11.2154 15.238 11.0373C15.2377 10.8591 15.2901 10.6849 15.3886 10.5366C15.4872 10.3883 15.6275 10.2726 15.7917 10.2041C15.956 10.1356 16.1368 10.1174 16.3114 10.1518C16.486 10.1862 16.6465 10.2717 16.7725 10.3974C16.9416 10.566 17.0368 10.7949 17.0373 11.0337C17.0377 11.2726 16.9434 11.5019 16.775 11.6711ZM19.574 11.6656C19.4485 11.7918 19.2883 11.8779 19.1139 11.913C18.9394 11.9481 18.7585 11.9306 18.594 11.8628C18.4295 11.795 18.2887 11.6798 18.1896 11.5319C18.0905 11.3839 18.0374 11.2099 18.037 11.0318C18.0367 10.8536 18.0891 10.6794 18.1876 10.5311C18.2862 10.3828 18.4265 10.2671 18.5907 10.1986C18.755 10.1301 18.9358 10.1119 19.1104 10.1463C19.285 10.1807 19.4455 10.2662 19.5715 10.3919C19.7406 10.5605 19.8358 10.7894 19.8363 11.0282C19.8367 11.2671 19.7424 11.4964 19.574 11.6656Z" fill="#120080"/>
</svg>
